<?xml version="1.0" standalone="no"?><!DOCTYPE svg PUBLIC "-//W3C//DTD SVG 1.1//EN" "http://www.w3.org/Graphics/SVG/1.1/DTD/svg11.dtd"><svg t="1594650337594" class="icon" viewBox="0 0 1024 1024" version="1.1" xmlns="http://www.w3.org/2000/svg" p-id="5558" xmlns:xlink="http://www.w3.org/1999/xlink" width="200" height="200"><defs><style type="text/css"></style></defs><path d="M864.939208 203.88817 965.253405 203.88817C985.402871 203.88817 1001.740546 188.870877 1001.73913 170.344046 1001.73913 151.818514 985.404287 136.799921 965.251989 136.799921L864.939208 136.799921 864.939208 36.485727C864.939208 16.334845 849.921919 0 831.395083 0 812.869552 0 797.850962 16.333431 797.850962 36.485727L797.850962 136.799921 697.536766 136.799921C677.385884 136.799921 661.05104 151.817213 661.05104 170.344046 661.05104 188.869577 677.384468 203.88817 697.536766 203.88817L797.850962 203.88817 797.850962 304.202364C797.850962 324.351831 812.868252 340.689505 831.395083 340.688091 849.920619 340.688091 864.939208 324.353246 864.939208 304.200949L864.939208 203.88817ZM625.686791 519.417567C644.189838 519.417567 659.145928 504.449687 659.145928 486.008676 659.145928 467.56116 644.189838 452.591981 625.686791 452.591981L524.164826 452.591981 524.164826 451.226655 648.171707 321.879511C660.922012 308.516214 660.716277 287.364054 647.333144 274.637909 634.012512 261.937771 613.002894 262.407184 600.187481 275.804288L493.949257 387.305962 381.455677 275.202244C368.338176 262.14192 347.19444 262.205635 334.143346 275.26856 321.093554 288.336686 320.460726 309.484946 333.540466 322.515363L457.245255 446.381693 457.245255 452.590681 358.134806 452.590681C339.663009 452.590681 324.673066 467.56116 324.673066 486.006072 324.673066 504.448387 339.664311 519.416267 358.134806 519.416267L457.245255 519.416267 457.245255 586.248352 358.134806 586.248352C339.663009 586.248352 324.673066 601.182426 324.673066 619.658547 324.673066 638.135968 339.664311 653.073938 358.134806 653.073938L457.245255 653.073938 457.245255 752.413803C457.245255 770.891224 472.236499 785.825298 490.701784 785.825298 509.173582 785.825298 524.163526 770.891224 524.163526 752.413803L524.163526 653.073938 625.686791 653.073938C644.188538 653.073938 659.144624 638.134664 659.144624 619.658547 659.144624 601.181126 644.188538 586.248352 625.686791 586.248352L524.163526 586.248352 524.163526 519.416267 625.686791 519.417567ZM958.528102 495.153762 958.528102 518.408526 892.220527 518.408526C892.223127 518.746606 892.233545 519.083386 892.233545 519.421467 892.233545 740.505555 712.149802 920.36068 490.765588 920.395789 269.589715 920.428295 89.17914 740.289705 89.180442 519.420167 89.180442 298.323075 269.298041 118.453647 490.704388 118.453647 490.834601 118.453647 490.966114 118.458848 491.097627 118.458848L491.097627 51.633262C491.095027 51.630661 491.095027 51.629361 491.092422 51.62806 232.625287 51.414809 22.29212 261.309721 22.26087 519.365552 22.232223 777.478598 232.234653 987.222675 490.706993 987.222675 749.019176 987.220075 959.153121 777.378478 959.153121 519.422767 959.153121 511.282822 958.939572 503.190982 958.526802 495.153762L958.528102 495.153762ZM502.574467 118.406835 491.097627 118.406835 491.097627 51.631961 502.574467 51.631961C521.039752 51.631961 536.010164 66.581638 536.010164 85.020049 536.012769 103.458459 521.042356 118.409436 502.574467 118.409436L502.574467 118.406835ZM925.374967 484.493811C907.064632 484.493811 892.220527 499.317359 892.220527 517.602331L892.220527 518.408526 958.528102 518.408526 958.528102 517.602331C958.528102 499.317359 943.683998 484.493811 925.373663 484.493811L925.374967 484.493811Z" p-id="5559" fill="#ffffff"></path></svg>