<?xml version="1.0" standalone="no"?><!DOCTYPE svg PUBLIC "-//W3C//DTD SVG 1.1//EN" "http://www.w3.org/Graphics/SVG/1.1/DTD/svg11.dtd"><svg t="1594650762788" class="icon" viewBox="0 0 1024 1024" version="1.1" xmlns="http://www.w3.org/2000/svg" p-id="12751" xmlns:xlink="http://www.w3.org/1999/xlink" width="200" height="200"><defs><style type="text/css"></style></defs><path d="M596.92544 801.73568c-64.97792 0-165.19168 0.02048-300.67712-0.01024-40.51456 0-81.12128 1.26464-121.46176-0.94208-11.62752-0.64512-25.22624-4.70016-25.4208-18.3296 0.54784-11.62752 14.42304-16.08192 25.84576-16.16896 139.6736-1.14688 279.38816-1.87904 419.03104 0.14848 38.59968 0.55808 55.08096-11.15136 62.67392-40.87808 15.49312-60.66176 7.9104-117.63712-31.15008-171.1616-11.91936-16.3328-26.09152-17.37216-49.792-19.08224-67.39968-4.86912-85.50912 33.60768-109.96224 70.33344-21.33504 32.05632-22.07744 31.70816-67.9424 17.96096-4.9664 5.6576-11.56096 11.41248-15.68256 18.2016-11.92448 19.66592-27.58144 24.33536-50.52416 11.81184-16.31744-8.9088-33.79712-16.32256-50.62144-24.59648-51.82464-25.48736-51.79904-25.51808-24.56576-73.43104-44.8-18.39104-28.61056-41.77408-8.99584-69.16096 62.19264-86.81472 122.60352-174.53056 182.0672-262.67136 16.70144-24.74496 32.89088-41.67168 70.68672-18.51392l34.72384-47.94368c-2.432-3.77344-3.12832-6.43584-5.10464-7.71584-20.8128-13.42464-49.22368-25.6-28.42624-52.52608 21.27872-27.5456 47.872-13.6448 72.79104-1.71008 45.97248 22.00064 92.50816 43.22304 137.98912 65.90464 24.03328 11.97568 59.4176 21.62688 41.03168 54.016-18.29888 32.23552-48.44032 16.07168-78.0288 4.17792-11.95008 17.08032-22.8608 32.66048-35.42016 50.58048 40.34048 17.00864 37.4784 39.02464 14.91456 64.77824-22.64576 25.81504-29.50144 51.87584-19.1232 78.51008 2.7648 7.10144 5.3248 18.69312 5.48864 19.67104 8.71936 52.19328 47.26784 76.34432 70.15936 119.68 57.87136 109.58336 37.1456 210.66752-53.12 302.74048-8.41728 8.59648-17.4336 16.768-32.04608 30.77632 82.9952 0 157.75744-0.57856 232.49408 0.29184 28.928 0.3328 69.44256-8.17152 70.44608 30.47424 1.09056 42.13248-41.7792 32.43008-71.59808 32.512-226.31424 0.58368-452.62336 0.32256-678.9376 0.31232-8.38656 0-16.77312-0.14848-25.14944-0.08192-27.00288 0.22528-48.22528-6.45632-47.06816-32.85504 1.0496-23.73632 20.61312-30.54592 46.10048-30.49984 83.8144 0.16896 167.62368 0.10752 251.4432 0.06144 64.0512-0.02048 119.8592-18.41152 169.3952-51.80928 10.73152-7.23456 14.75584-12.52352 24.33536-20.34176 5.53984-3.67104 1.8432-12.544-0.79872-12.51328zM473.48224 235.96032c-66.816 96.8448-130.3296 188.88704-195.0976 282.77248 28.3136 13.79328 50.99008 25.04192 73.89184 35.96288 23.67488 11.28448 47.55968 22.27712 72.4992 33.92 25.2928-35.83488 57.56928-60.56448 24.4992-107.60192-34.4576-48.98816 17.43872-118.0672 84.08576-116.66944 53.69856 1.12128 68.75136-23.44448 85.0688-58.12224l-144.9472-70.26176z m137.35424 214.77376c-0.0768-27.88864-31.77472-53.10464-65.44384-52.0704-32.64 1.00864-61.02016 25.4464-60.75904 52.3264 0.26112 26.85952 28.67712 50.75456 61.32224 51.54816 35.02592 0.86016 64.94208-23.04 64.88064-51.80416z m-11.24864-198.00576l35.85536-53.59616c-21.08928-10.28096-37.504-18.26816-56.7552-27.648l-37.38112 53.7088 58.28096 27.53536z" fill="#ffffff" p-id="12752"></path></svg>