<?xml version="1.0" standalone="no"?><!DOCTYPE svg PUBLIC "-//W3C//DTD SVG 1.1//EN" "http://www.w3.org/Graphics/SVG/1.1/DTD/svg11.dtd"><svg t="1594650650147" class="icon" viewBox="0 0 1024 1024" version="1.1" xmlns="http://www.w3.org/2000/svg" p-id="11542" xmlns:xlink="http://www.w3.org/1999/xlink" width="200" height="200"><defs><style type="text/css"></style></defs><path d="M539.648 39.936A472.064 472.064 0 0 0 179.712 204.8a25.6 25.6 0 0 0 38.912 33.28 420.864 420.864 0 1 1 55.808 600.576 23.552 23.552 0 0 1-3.584-3.584h268.8a323.072 323.072 0 0 0 0-646.144 25.6 25.6 0 0 0 0 51.2 271.872 271.872 0 1 1 0 543.744H37.888a25.6 25.6 0 1 0 0 51.2h157.696a463.872 463.872 0 0 0 46.592 43.008A472.064 472.064 0 1 0 539.648 39.936z" fill="#ffffff" p-id="11543"></path><path d="M232.96 665.6a115.2 115.2 0 0 0 90.624-41.984l-24.576-28.672a84.48 84.48 0 0 1-64.512 30.72c-51.2 0-83.968-42.496-83.968-111.616s34.816-110.592 84.992-110.592a75.776 75.776 0 0 1 56.832 26.112l25.088-29.696a113.664 113.664 0 0 0-82.944-36.864C160.768 363.008 102.4 420.352 102.4 515.584S159.232 665.6 232.96 665.6zM473.6 660.48V407.04h86.016V368.64H342.016v38.4h85.504v253.44h46.08z" fill="#ffffff" p-id="11544"></path></svg>