<?xml version="1.0" standalone="no"?><!DOCTYPE svg PUBLIC "-//W3C//DTD SVG 1.1//EN" "http://www.w3.org/Graphics/SVG/1.1/DTD/svg11.dtd"><svg t="1594651306844" class="icon" viewBox="0 0 1024 1024" version="1.1" xmlns="http://www.w3.org/2000/svg" p-id="20166" xmlns:xlink="http://www.w3.org/1999/xlink" width="200" height="200"><defs><style type="text/css"></style></defs><path d="M865.04 65.96H155.39c-32.69 0-59.18 28.67-59.18 64.04v767.92c0 35.37 26.49 64.04 59.18 64.04h709.64c32.69 0 59.18-28.67 59.18-64.04V129.99c0-35.36-26.49-64.03-59.17-64.03z m-1.18 786.72c0 30.31-11.52 42.89-39.32 42.89H199.18c-27.78 0-39.32-12.57-39.32-42.89V170.45c0-30.31 11.52-42.89 39.32-42.89h625.37c27.78 0 39.32 12.57 39.32 42.89v682.23z" p-id="20167" fill="#ffffff"></path><path d="M734.72 638.96h-444c-17.6 0-32 14.4-32 32s14.4 32 32 32h444c17.6 0 32-14.4 32-32s-14.4-32-32-32zM734.72 765.96h-444c-17.6 0-32 14.4-32 32s14.4 32 32 32h444c17.6 0 32-14.4 32-32s-14.4-32-32-32zM526.73 575.95c47.08 0 88.34-12.17 123.79-36.53 35.45-24.35 52.49-52.23 51.12-83.66l-0.82-2.02h-72.67c0 19.76-10.2 36.42-30.59 50-20.39 13.58-44 20.37-70.82 20.37-42.7 0-73.08-12.4-91.13-37.22-18.07-24.8-27.1-55.83-27.1-93.09v-14.14c0-36.36 9.09-67.05 27.3-92.08 18.2-25.02 48.51-37.54 90.94-37.54 18.89 0 35.85 2.36 50.91 7.07 15.05 4.72 27.36 10.89 36.95 18.52l17.65 57.24h64.45l-3.7-80.8c-18.61-16.84-42.08-30.08-70.41-39.73s-60.29-14.48-95.87-14.48c-64.33 0-113.6 17.34-147.81 52.02-34.22 34.68-51.32 77.94-51.32 129.79v14.14c0 52.3 17.04 95.73 51.12 130.29 34.08 34.57 83.41 51.85 148.01 51.85z" p-id="20168" fill="#ffffff"></path></svg>