<?xml version="1.0" standalone="no"?><!DOCTYPE svg PUBLIC "-//W3C//DTD SVG 1.1//EN" "http://www.w3.org/Graphics/SVG/1.1/DTD/svg11.dtd"><svg t="1594649801607" class="icon" viewBox="0 0 1024 1024" version="1.1" xmlns="http://www.w3.org/2000/svg" p-id="2030" xmlns:xlink="http://www.w3.org/1999/xlink" width="200" height="200"><defs><style type="text/css"></style></defs><path d="M384 128h-170.666667c-46.933333 0-85.333333 38.4-85.333333 85.333333v170.666667c0 46.933333 38.4 85.333333 85.333333 85.333333h170.666667c46.933333 0 85.333333-38.4 85.333333-85.333333v-170.666667c0-46.933333-38.4-85.333333-85.333333-85.333333M810.666667 128h-170.666667c-46.933333 0-85.333333 38.4-85.333333 85.333333v170.666667c0 46.933333 38.4 85.333333 85.333333 85.333333h170.666667c46.933333 0 85.333333-38.4 85.333333-85.333333v-170.666667c0-46.933333-38.4-85.333333-85.333333-85.333333M384 554.666667h-170.666667c-46.933333 0-85.333333 38.4-85.333333 85.333333v170.666667c0 46.933333 38.4 85.333333 85.333333 85.333333h170.666667c46.933333 0 85.333333-38.4 85.333333-85.333333v-170.666667c0-46.933333-38.4-85.333333-85.333333-85.333333M810.666667 554.666667h-170.666667c-46.933333 0-85.333333 38.4-85.333333 85.333333v170.666667c0 46.933333 38.4 85.333333 85.333333 85.333333h170.666667c46.933333 0 85.333333-38.4 85.333333-85.333333v-170.666667c0-46.933333-38.4-85.333333-85.333333-85.333333" fill="#ffffff" p-id="2031"></path></svg>