<?xml version="1.0" standalone="no"?><!DOCTYPE svg PUBLIC "-//W3C//DTD SVG 1.1//EN" "http://www.w3.org/Graphics/SVG/1.1/DTD/svg11.dtd"><svg t="1594650442972" class="icon" viewBox="0 0 1024 1024" version="1.1" xmlns="http://www.w3.org/2000/svg" p-id="7581" xmlns:xlink="http://www.w3.org/1999/xlink" width="200" height="200"><defs><style type="text/css"></style></defs><path d="M288.820513 306.386051c69.632-22.239179 144.068923-33.319385 223.179487-33.319384s153.547487 11.080205 223.179487 33.319384V93.866667A687.366564 687.366564 0 0 0 512 56.897641c-103.213949 0-181.326769 22.738051-223.179487 36.969026v212.519384z m448.406974 61.650052c-69.369436-24.786051-144.410256-37.205333-225.227487-37.205334-79.294359 0-152.969846 11.946667-221.210256 35.787487l0.813948 17.381744v5.697641c0 125.138051 92.081231 227.538051 209.237334 236.071385h13.942153c122.748718 0 223.179487-102.4 223.179488-227.538052v-14.230974l-0.73518-15.963897z m-35.524923 237.830564C849.55241 642.835692 958.358974 776.533333 958.358974 938.666667c0 48.364308-36.260103 85.333333-83.705436 85.333333H149.346462C101.901128 1024 65.641026 987.030974 65.641026 938.666667c0-162.133333 111.589744-298.666667 259.439589-332.8-55.794872-56.897641-92.054974-133.697641-92.054974-219.030975V73.964308c0-11.395282 5.592615-19.928615 16.725333-25.6C288.820513 34.133333 383.658667 0 512 0c128.315077 0 225.962667 34.133333 262.249026 48.364308 11.158974 2.835692 16.725333 14.204718 16.725333 25.6v324.266666c0 82.471385-33.476923 156.435692-89.271795 207.635693z m-284.566974 253.164307L512 935.830974l5.566359-2.861948-159.008821-236.071385-36.260102 91.004718 94.838154 71.128615z m75.355897-179.2c-33.503179 0-64.196923-8.533333-92.081231-22.764307l114.372923 164.969025 108.806565-167.804718c-33.476923 17.066667-72.520205 25.6-111.589744 25.6h-19.534769z m172.950975 17.066667l-117.182359 179.2 13.96841 19.902359 44.635897-36.969026 94.838154-73.964307-36.260102-88.169026z m-357.08718-25.6C199.548718 708.266667 121.435897 813.502359 121.435897 938.666667c0 17.066667 11.158974 28.435692 27.910565 25.6h315.234461l-78.11282-62.569026-94.864411-71.128615c-22.317949-14.204718-27.884308-42.666667-19.508513-65.404718l36.233847-93.866667z m301.292308 295.804718h265.005948c16.75159 0 27.910564-11.369026 30.72-25.6 0-122.302359-78.139077-227.538051-186.945641-267.369026l36.286359 93.866667c8.375795 22.764308 0 51.2-19.534769 65.430974l-94.86441 71.102359-47.419077 36.969026 16.75159 25.6zM567.794872 142.230974h-27.910564V113.769026c0-14.204718-13.915897-28.435692-27.884308-28.435693-13.942154 0-27.910564 14.230974-27.910564 28.435693v28.461948h-27.884308c-13.942154 0-27.910564 14.204718-27.910564 28.435693 0 14.230974 13.96841 28.435692 27.910564 28.435692h27.910564v28.461949c0 14.204718 13.915897 28.435692 27.884308 28.435692 13.942154 0 27.910564-14.230974 27.910564-28.435692V199.102359h27.884308c13.942154 0 27.910564-14.204718 27.910564-28.435692 0-14.230974-13.96841-28.435692-27.910564-28.435693z" p-id="7582" fill="#ffffff"></path></svg>