<?xml version="1.0" standalone="no"?><!DOCTYPE svg PUBLIC "-//W3C//DTD SVG 1.1//EN" "http://www.w3.org/Graphics/SVG/1.1/DTD/svg11.dtd"><svg t="1594650836302" class="icon" viewBox="0 0 1024 1024" version="1.1" xmlns="http://www.w3.org/2000/svg" p-id="13725" xmlns:xlink="http://www.w3.org/1999/xlink" width="200" height="200"><defs><style type="text/css"></style></defs><path d="M882.630249 716.588585l0.055258 38.315654c44.851511 13.456477 75.402317 53.447283 75.568093 98.747001 0 57.190537-48.480154 103.492072-108.24226 103.492073S741.884714 910.786519 741.884714 853.65124c0-45.743834 30.997991-84.451414 73.892941-98.134041v-38.928614c0-42.783409-36.306904-77.636195-81.099063-77.636195h-9.55154c-44.735877 0-81.099063 34.852786-81.099063 77.636195v100.533694c-0.387833 78.471213-66.63156 141.862985-148.006915 141.585669h-9.496282c-81.542154 0-147.951657-63.561641-147.951657-141.585669V628.843148h-2.792602c-15.495926-0.030699-28.039613-12.599969-28.039613-28.095895C136.052652 589.858252 102.205776 467.429899 76.79299 322.547137l-5.811356-33.17661c-11.725042-64.452941-3.90596-135.945205 24.969695-169.95888 19.660782-23.343661 48.591695-37.811164 79.755462-39.989783h51.610448a47.354518 47.354518 0 0 1 34.066887-14.075577c25.805736-0.055259 46.860261 20.052708 46.971801 44.907793a45.118594 45.118594 0 0 1-28.095895 41.32929 48.1353 48.1353 0 0 1-50.54314-8.26729h-51.832506a48.200792 48.200792 0 0 0-30.6603 17.204847c-15.363919 18.875906-18.377556 73.726142-10.391674 117.848035l5.922896 33.510208c28.593222 163.647127 58.474786 214.471676 164.985612 224.752834 0-14.633279 11.896958-26.530236 26.530236-26.530237h72.886007c14.301727 0 25.860994 11.559267 25.860995 25.856901 102.042047-14.186094 135.38648-63.502289 163.480328-224.02424l5.922896-33.509184c8.097422-44.792159 0.836041-99.974969-15.136745-118.684077a48.102554 48.102554 0 0 0-29.936823-16.425087h-51.941999a48.136324 48.136324 0 0 1-50.492998 8.322549 45.131897 45.131897 0 0 1-28.093848-41.329291c0-11.952216 5.027503-23.460318 13.798261-31.834032a47.701418 47.701418 0 0 1 33.172517-13.185301c12.847609 0 25.136493 5.13802 33.962509 14.130836h51.550073a114.855888 114.855888 0 0 1 79.871095 39.989783c28.874631 34.06791 40.771589 105.505939 29.04143 169.958879l-5.808286 33.121352c-25.079188 143.317103-62.554708 263.063371-229.331105 277.868565v0.835018c0 15.269775-12.377912 27.647687-27.647687 27.647687v188.223872c0 42.838667 36.363186 77.632101 81.099063 77.632102h9.55154c44.7369 0 81.099063-34.793434 81.099063-77.632102V716.532303c0.388856-78.415954 66.63156-141.756561 148.007938-141.53041h9.495259c81.59946 0 147.94961 63.558571 147.94961 141.586692z m-32.56365 192.968943c30.849612 0 55.852052-25.007557 55.852052-55.852052 0-30.848589-25.003464-55.852052-55.852052-55.852053-30.845519 0-55.852052 25.004487-55.852052 55.852053 0 30.845519 25.007557 55.852052 55.852052 55.852052z m0 0" p-id="13726" fill="#ffffff"></path></svg>