<?xml version="1.0" standalone="no"?><!DOCTYPE svg PUBLIC "-//W3C//DTD SVG 1.1//EN" "http://www.w3.org/Graphics/SVG/1.1/DTD/svg11.dtd"><svg t="1594650807774" class="icon" viewBox="0 0 1024 1024" version="1.1" xmlns="http://www.w3.org/2000/svg" p-id="12926" xmlns:xlink="http://www.w3.org/1999/xlink" width="200" height="200"><defs><style type="text/css"></style></defs><path d="M995.759158 36.594526c-10.24-10.24-31.474526-11.317895-39.504842-3.664842L792.791579 196.338526l-91.297684-91.459368c-8.084211-7.653053-19.509895-6.305684-27.540211 1.347368L234.442105 545.738105l-20.264421-20.264421c-8.030316-7.599158-25.330526-5.928421-38.211368 6.952421-13.258105 13.258105-13.904842 29.534316-6.036211 37.349053l120.077474 120.185263-181.409684 181.35579-53.248-53.301895c-8.084211-7.653053-25.492211-9.701053-39.504842 4.311579-14.659368 14.659368-13.258105 32.660211-5.389474 40.582737l144.599579 144.545684a30.72 30.72 0 0 0 43.439158-2.425263c19.402105-19.402105 5.281684-38.588632 1.455158-42.361264l-50.553263-50.553263 181.409684-181.409684 112.154947 112.154947c8.030316 7.653053 26.138947 8.623158 39.073684-4.311578 13.150316-13.204211 13.096421-32.067368 5.22779-39.989895l-14.982737-14.982737 439.511579-439.565474c7.868632-7.922526 12.503579-16.060632 4.634947-24.037052l-79.386947-79.548632 163.354947-163.301053c8.838737-8.892632 5.766737-30.181053-4.634947-40.528842z m-207.171369 340.938106L724.237474 313.128421a20.749474 20.749474 0 0 0-28.672 0 20.426105 20.426105 0 0 0 0 28.672l64.296421 64.350316-28.725895 28.779789-35.408842-35.408842a20.749474 20.749474 0 0 0-28.725895 0 20.318316 20.318316 0 0 0 0 28.618105l35.462737 35.462737-28.725895 28.725895-35.462737-35.408842a20.695579 20.695579 0 0 0-28.618105 0 20.156632 20.156632 0 0 0 0 28.618105l35.354948 35.462737-217.573053 217.680842-148.210526-148.210526 409.977263-410.138948 148.264421 148.264422-48.882527 48.882526z" fill="#ffffff" p-id="12927"></path><path d="M391.814737 661.504a19.240421 19.240421 0 0 0-0.646737 26.570105l60.901053 60.901053a19.240421 19.240421 0 0 0 27.216842-27.216842l-60.901053-60.901053a19.240421 19.240421 0 0 0-26.51621 0.646737z m69.632-70.871579a19.240421 19.240421 0 0 0 0 27.216842l60.901052 60.901053a19.132632 19.132632 0 0 0 27.162948 0 19.240421 19.240421 0 0 0 0-27.216842l-60.901053-60.901053a19.240421 19.240421 0 0 0-27.162947 0z m62.086737-105.633684a19.240421 19.240421 0 1 0-27.216842 27.216842l96.256 96.256a19.132632 19.132632 0 0 0 32.821894-13.581474 19.240421 19.240421 0 0 0-5.658947-13.635368L523.533474 485.052632z" fill="#ffffff" p-id="12928"></path></svg>