<?xml version="1.0" standalone="no"?><!DOCTYPE svg PUBLIC "-//W3C//DTD SVG 1.1//EN" "http://www.w3.org/Graphics/SVG/1.1/DTD/svg11.dtd"><svg t="1594650564194" class="icon" viewBox="0 0 1024 1024" version="1.1" xmlns="http://www.w3.org/2000/svg" p-id="8453" xmlns:xlink="http://www.w3.org/1999/xlink" width="200" height="200"><defs><style type="text/css"></style></defs><path d="M753.164107 66.093301 271.855106 66.093301c-56.9562 0-103.138008 46.172599-103.138008 103.138008l0 687.583994c0 56.958246 46.181809 103.138008 103.138008 103.138008l305.804824 0 3.960195 0 24.802896 0 249.878071-218.949664 0-8.468882L856.301092 697.048553 856.301092 169.231309C856.302115 112.2659 810.122353 66.093301 753.164107 66.093301zM586.095044 909.141042 586.095044 720.27965l214.517725 0L586.095044 909.141042zM804.733623 668.711158 534.526551 668.711158l0 5.263887 0 46.305629 0 188.104145-245.480924 0c-37.971823 0-68.75799-30.786167-68.75799-68.75799L220.287637 186.420807c0-37.971823 30.786167-68.75799 68.75799-68.75799l446.930005 0c37.971823 0 68.75799 30.786167 68.75799 68.75799L804.733623 668.711158z" p-id="8454" fill="#ffffff"></path><path d="M340.61412 274.861068l343.791997 0 0 51.568493-343.791997 0 0-51.568493Z" p-id="8455" fill="#ffffff"></path><path d="M340.61412 467.221144l343.791997 0 0 51.568493-343.791997 0 0-51.568493Z" p-id="8456" fill="#ffffff"></path><path d="M856.375793 312.206628 856.375793 345.80791 856.375793 345.80791Z" p-id="8457" fill="#ffffff"></path><path d="M648.000975 96.597035 679.264003 96.597035 648.000975 96.597035Z" p-id="8458" fill="#ffffff"></path></svg>