<?xml version="1.0" standalone="no"?><!DOCTYPE svg PUBLIC "-//W3C//DTD SVG 1.1//EN" "http://www.w3.org/Graphics/SVG/1.1/DTD/svg11.dtd"><svg t="1594651064592" class="icon" viewBox="0 0 1024 1024" version="1.1" xmlns="http://www.w3.org/2000/svg" p-id="15348" xmlns:xlink="http://www.w3.org/1999/xlink" width="200" height="200"><defs><style type="text/css"></style></defs><path d="M950.24 491.481c-33.091-25.895-425.058-365.986-425.058-365.986s-26.832-23.002-51.399 0.773c-24.561 23.77-394.198 346.508-394.198 346.508s-37.115 27.049-14.389 53.516c22.732 26.476 31.655 31.654 31.655 31.654s13.804 12.66 39.126-13.241c25.319-25.894 26.473-29.919 26.473-29.919l1.148 364.832s0.291 48.918 46.897 48.336c46.616-0.572 615.451 0 615.451 0s41.428-5.46 41.428-52.076c0-46.606-0.572-348.147-0.572-348.147l32.8 36.54s15.818 21.006 32.509 4.315c16.693-16.685 37.69-39.702 37.69-39.702s13.522-11.512-19.561-37.403zM741.924 872.429c-47.182 1.147-468.409 2.302-468.409 2.302s-43.742 8.056-42.585-54.097c1.147-62.144 1.147-366.559 1.147-366.559l266.248-230.358 290.029 247.816 4.207 349.101c0.001 0-3.448 50.637-50.637 51.795z" p-id="15349" fill="#ffffff"></path><path d="M644.095 576.973H552.03v-92.078c0-20.335-16.509-36.824-36.834-36.824-20.351 0-36.825 16.489-36.825 36.824v92.078h-92.075c-20.351 0-36.825 16.486-36.825 36.821 0 20.345 16.474 36.834 36.825 36.834h92.075v92.069c0 20.341 16.474 36.83 36.825 36.83 20.325 0 36.834-16.489 36.834-36.83v-92.069h92.065c20.329 0 36.834-16.489 36.834-36.834 0-20.335-16.505-36.821-36.834-36.821z" p-id="15350" fill="#ffffff"></path></svg>