<?xml version="1.0" standalone="no"?><!DOCTYPE svg PUBLIC "-//W3C//DTD SVG 1.1//EN" "http://www.w3.org/Graphics/SVG/1.1/DTD/svg11.dtd"><svg t="1594650611928" class="icon" viewBox="0 0 1024 1024" version="1.1" xmlns="http://www.w3.org/2000/svg" p-id="10389" xmlns:xlink="http://www.w3.org/1999/xlink" width="200" height="200"><defs><style type="text/css"></style></defs><path d="M873.2416 161.408h-119.296v-47.3856a27.7504 27.7504 0 0 0-28.5696-26.7008H290.3296a27.7504 27.7504 0 0 0-28.5696 26.7008v47.3856H149.504a31.0272 31.0272 0 0 0-32.1536 29.8496v715.4176c0.5376 17.1264 14.848 30.5664 31.9744 30.0544h724.608a31.0272 31.0272 0 0 0 32.1536-29.8496V191.4368a32.128 32.128 0 0 0-32.8448-30.0288z m-554.368-20.6848h377.9328v76.0576H318.8736v-76.0576z m522.2144 735.9488H180.9664V221.4144h80v22.016a27.776 27.776 0 0 0 28.5696 26.7008h435.0976a27.7504 27.7504 0 0 0 28.5696-26.7008v-21.9904h87.1424v655.232h0.7424z" fill="#ffffff" p-id="10390"></path><path d="M686.2592 524.2368h-137.2928v-138.0352a31.488 31.488 0 1 0-63.0272 0v137.2672H348.672a31.488 31.488 0 1 0 0 63.0272h137.2672v137.2672a31.488 31.488 0 1 0 63.0016 0v-136.4992h137.2928a31.488 31.488 0 0 0 0.0256-63.0272z" fill="#ffffff" p-id="10391"></path></svg>