<?xml version="1.0" standalone="no"?><!DOCTYPE svg PUBLIC "-//W3C//DTD SVG 1.1//EN" "http://www.w3.org/Graphics/SVG/1.1/DTD/svg11.dtd"><svg t="1594650381182" class="icon" viewBox="0 0 1024 1024" version="1.1" xmlns="http://www.w3.org/2000/svg" p-id="6443" xmlns:xlink="http://www.w3.org/1999/xlink" width="200" height="200"><defs><style type="text/css"></style></defs><path d="M512 64c247.424 0 448 200.576 448 448 0 7.936-0.213333 15.850667-0.618667 23.744a42.666667 42.666667 0 0 1-85.226666-4.48c0.341333-6.4 0.512-12.8 0.512-19.264 0-200.298667-162.368-362.666667-362.666667-362.666667S149.333333 311.701333 149.333333 512s162.368 362.666667 362.666667 362.666667c33.152 0 65.664-4.437333 96.96-13.098667a42.666667 42.666667 0 1 1 22.762667 82.24A448.384 448.384 0 0 1 512 960C264.576 960 64 759.424 64 512S264.576 64 512 64z m437.845333 676.352l0.597334 0.746667 1.493333 1.92 0.576 0.832a46.122667 46.122667 0 0 1 1.813333 2.858666A42.496 42.496 0 0 1 960 768v0.981333l-0.042667 0.853334-0.021333 0.234666-0.128 2.069334a46.976 46.976 0 0 1-1.173333 6.634666 49.408 49.408 0 0 1-2.368 6.72 37.973333 37.973333 0 0 1-0.448 0.96l-0.170667 0.341334a42.645333 42.645333 0 0 1-5.653333 8.661333l-0.576 0.661333a42.922667 42.922667 0 0 1-1.386667 1.493334l-0.533333 0.554666-85.333334 85.333334a42.666667 42.666667 0 0 1-62.826666-57.621334l2.496-2.709333 12.501333-12.544-153.066667-0.064a42.624 42.624 0 0 1 0-85.226667h153.045334l-12.48-12.501333a42.666667 42.666667 0 0 1 57.621333-62.826667l2.709333 2.496 85.333334 85.333334 1.194666 1.237333 0.32 0.341333-1.493333-1.578666 1.962667 2.133333 0.362666 0.384zM451.264 327.786667l2.858667 2.218666 2.709333 2.496 55.125333 55.104 55.232-55.125333a42.666667 42.666667 0 0 1 62.784 57.664l-2.496 2.709333-12.501333 12.48H640a42.666667 42.666667 0 0 1 3.2 85.226667L640 490.666667h-85.333333v42.666666h85.333333a42.666667 42.666667 0 0 1 3.2 85.226667L640 618.666667h-85.333333v64a42.666667 42.666667 0 0 1-85.226667 3.2L469.333333 682.666667v-64h-85.333333a42.666667 42.666667 0 0 1-3.2-85.226667L384 533.333333h85.333333v-42.666666h-85.333333a42.666667 42.666667 0 0 1-3.2-85.226667L384 405.333333h24.981333l-12.48-12.501333a42.666667 42.666667 0 0 1 54.762667-65.045333z" p-id="6444" fill="#ffffff"></path></svg>