<?xml version="1.0" standalone="no"?><!DOCTYPE svg PUBLIC "-//W3C//DTD SVG 1.1//EN" "http://www.w3.org/Graphics/SVG/1.1/DTD/svg11.dtd"><svg t="1594650256754" class="icon" viewBox="0 0 1024 1024" version="1.1" xmlns="http://www.w3.org/2000/svg" p-id="3971" xmlns:xlink="http://www.w3.org/1999/xlink" width="200" height="200"><defs><style type="text/css"></style></defs><path d="M759.488 583.04a38.4 38.4 0 0 1 37.888 32.128l0.512 6.272v95.488h95.488a38.4 38.4 0 0 1 6.272 76.352l-6.272 0.512h-95.488v95.488a38.4 38.4 0 0 1-76.352 6.272l-0.448-6.272v-95.488H625.536a38.4 38.4 0 0 1-6.272-76.352l6.272-0.512h95.552V621.44a38.4 38.4 0 0 1 38.4-38.4zM461.76 96.32A230.4 230.4 0 0 1 602.752 508.8c20.032 7.04 39.616 15.744 58.368 26.112A38.4 38.4 0 1 1 624 602.24a317.248 317.248 0 0 0-154.432-39.232 296.384 296.384 0 0 0-295.808 231.296c-3.2 16.64-4.864 33.408-4.864 50.368a38.4 38.4 0 0 1-76.8 0c0-21.76 2.112-43.52 6.4-65.92a373.76 373.76 0 0 1 226.88-266.432 230.4 230.4 0 0 1 136.32-416z m0 76.8a153.6 153.6 0 1 0 0 307.2 153.6 153.6 0 0 0 0-307.2z" p-id="3972" fill="#ffffff"></path></svg>