<?xml version="1.0" standalone="no"?><!DOCTYPE svg PUBLIC "-//W3C//DTD SVG 1.1//EN" "http://www.w3.org/Graphics/SVG/1.1/DTD/svg11.dtd"><svg t="1594650103891" class="icon" viewBox="0 0 1024 1024" version="1.1" xmlns="http://www.w3.org/2000/svg" p-id="3125" xmlns:xlink="http://www.w3.org/1999/xlink" width="200" height="200"><defs><style type="text/css"></style></defs><path d="M718.72 646.336H569.728v88.192c0 18.56-15.36 33.472-42.112 33.472-22.912 0-38.208-14.784-38.208-33.472v-88.192H336.576a41.856 41.856 0 0 1-42.048-40.96c0-18.56 19.136-37.184 42.048-37.184h152.96V500.8h-152.96a41.856 41.856 0 0 1-42.048-40.96c0-18.56 19.136-37.184 42.048-37.184h114.688L335.808 248.512a41.216 41.216 0 0 1-2.112-30.656 33.92 33.92 0 0 1 22.976-22.272c19.136-7.488 40.192 0.896 51.712 15.808l119.232 170.432 111.232-172.992c11.456-14.848 36.736-22.72 55.872-11.52 7.68 3.712 11.456 7.424 15.296 11.136 4.608 5.248 6.848 9.216 6.848 11.648 3.84 7.488 2.176 18.56-1.664 25.92l-15.296 25.984L604.16 422.656h114.624c22.976 0 42.112 18.56 42.112 40.96 0 18.56-19.136 37.12-42.112 37.12H569.728V568.32h149.12a41.6 41.6 0 0 1 41.92 40.768c0 18.56-19.136 37.248-42.048 37.248zM216.32 64c-83.2 0-152.128 69.312-152.128 153.088L59.648 876.224c-2.88 37.504 25.856 89.536 68.864 89.536 57.472 0 63.168-86.656 120.512-89.6h8.64c54.528 2.944 60.352 80.96 114.816 89.6H384c54.528-5.76 57.472-83.84 114.816-89.6h8.64c54.528 2.944 60.352 80.96 114.816 89.6h11.52c54.528-5.76 57.472-83.84 114.816-89.6h14.4c45.952 2.944 57.408 63.552 94.72 83.84 51.648 28.864 100.48-34.624 97.6-83.84l4.544-659.072c0-83.84-68.864-153.088-152.064-153.088H216.32z" fill="#ffffff" p-id="3126"></path></svg>