<?xml version="1.0" standalone="no"?><!DOCTYPE svg PUBLIC "-//W3C//DTD SVG 1.1//EN" "http://www.w3.org/Graphics/SVG/1.1/DTD/svg11.dtd"><svg t="1594651397380" class="icon" viewBox="0 0 1024 1024" version="1.1" xmlns="http://www.w3.org/2000/svg" p-id="23415" xmlns:xlink="http://www.w3.org/1999/xlink" width="200" height="200"><defs><style type="text/css"></style></defs><path d="M358.4 408.576c-28.16 0-51.2 23.04-51.2 51.2V972.8c0 28.16 23.04 51.2 51.2 51.2s51.2-23.04 51.2-51.2V459.776c0-28.672-23.04-51.2-51.2-51.2zM51.2 615.424c-28.16 0-51.2 23.04-51.2 51.2v307.712c1.024 28.16 25.088 50.688 53.248 49.152 26.624-1.024 48.128-22.528 49.152-49.152v-307.712c0-28.16-22.528-51.2-51.2-51.2zM972.8 0c-28.16 0-51.2 23.04-51.2 51.2v923.136c1.024 28.16 25.088 50.688 53.248 49.152 26.624-1.024 48.128-22.528 49.152-49.152V51.2c0-28.16-23.04-51.2-51.2-51.2zM665.6 254.464c-28.16 0-51.2 23.04-51.2 51.2V972.8c0 28.16 23.04 51.2 51.2 51.2s51.2-23.04 51.2-51.2V305.664c0-28.16-22.528-51.2-51.2-51.2z" fill="#ffffff" p-id="23416"></path></svg>