<?xml version="1.0" standalone="no"?><!DOCTYPE svg PUBLIC "-//W3C//DTD SVG 1.1//EN" "http://www.w3.org/Graphics/SVG/1.1/DTD/svg11.dtd"><svg t="1594651134244" class="icon" viewBox="0 0 1024 1024" version="1.1" xmlns="http://www.w3.org/2000/svg" p-id="17030" xmlns:xlink="http://www.w3.org/1999/xlink" width="200" height="200"><defs><style type="text/css"></style></defs><path d="M678.4 319.2c36.8 0 66.8 29.7 66.8 66.1v143.1c-16.7-6.8-34.5-11.6-52.9-14.2V385.3c0-7.3-6.2-13.2-13.9-13.2H210.2c-7.7 0-13.9 5.9-13.9 13.2v507.9c0 7.3 6.2 13.2 13.9 13.2h305c34 29.2 76.9 48.4 124.1 52.9H210.2c-36.8 0-66.8-29.7-66.8-66.1V385.3c0-36.5 30-66.1 66.8-66.1h468.2zM683.7 63.9H204.9c-36.5 0-66.1 29.7-66.1 66.1v87.3c0 36.5 29.7 66.1 66.1 66.1h478.8c36.5 0 66.1-29.7 66.1-66.1V130c0-36.4-29.6-66.1-66.1-66.1z m13.2 153.4c0 7.3-5.9 13.2-13.2 13.2H204.9c-7.3 0-13.2-5.9-13.2-13.2V130c0-7.3 5.9-13.2 13.2-13.2h478.8c7.3 0 13.2 5.9 13.2 13.2v87.3z" p-id="17031" fill="#ffffff"></path><path d="M582.7 668.8l18.6-18.3c-11.4-12.9-25.3-25.8-41.6-38.7l-17.8 16.9c17.7 14.3 31.3 27.7 40.8 40.1zM750 734l-18.6-14.4c-5.8 7.3-12.4 14.4-19.8 21.3-10.9-7.4-22.6-14.6-35-21.6L662 737.2c33.3 19 61 39.7 82.8 62l15.9-19.3c-8.9-8.6-19.1-17.1-30.5-25.5 7.3-6.5 13.8-13.4 19.8-20.4z" p-id="17032" fill="#ffffff"></path><path d="M693.2 784.3l-5.9-23.3c-15 4.3-28.9 7.6-41.4 9.9v-55.3h98.9v-98.2h-124v150.5c0 4.3-2.9 7.6-8.7 9.9l5.5 21.8c29.9-4.8 55.2-9.8 75.6-15.3z m-47.3-144h73.6v15.6h-73.6v-15.6z m0 36.9h73.6v15.6h-73.6v-15.6z" p-id="17033" fill="#ffffff"></path><path d="M696.7 811.3c-14.4 0-31.1-0.1-50.3-0.5-14.9-0.5-25.8-2.6-32.7-6.2-5.6-3.1-11.3-8.1-17.1-14.6l-2.7-2.7v-94.2H537v23.8h32.7v67.9c-9.5 5.3-20.7 18-33.2 37.9l19.1 17.6c12.3-22.2 20.8-33.2 25.8-33.2 2.6 0 5.7 2.1 9.2 6.2 7.4 8.4 16.1 14.1 26 17.1 10.8 2.6 23.9 4.1 39.4 4.2 21.2 0.4 35.9 0.5 44.4 0.5h57l6.4-25.5c-7.1 0.5-17 1-29.5 1.5l-37.6 0.2z" p-id="17034" fill="#ffffff"></path><path d="M661.1 512.1c123.8 0 224.2 100.4 224.2 224.2S784.9 960.5 661.1 960.5 436.9 860.1 436.9 736.3s100.4-224.2 224.2-224.2z m0 56.1c-92.9 0-168.1 75.3-168.1 168.1s75.3 168.1 168.1 168.1 168.1-75.3 168.1-168.1S754 568.2 661.1 568.2z" p-id="17035" fill="#ffffff"></path></svg>