<?xml version="1.0" standalone="no"?><!DOCTYPE svg PUBLIC "-//W3C//DTD SVG 1.1//EN" "http://www.w3.org/Graphics/SVG/1.1/DTD/svg11.dtd"><svg t="1594651419762" class="icon" viewBox="0 0 1024 1024" version="1.1" xmlns="http://www.w3.org/2000/svg" p-id="24220" xmlns:xlink="http://www.w3.org/1999/xlink" width="200" height="200"><defs><style type="text/css"></style></defs><path d="M844.7 959.8H179.3c-45.9 0-83.2-37.2-83.2-83.2V211.1c0-45.9 37.2-83.2 83.2-83.2h62.4v62.4c0 45.9 37.2 83.2 83.2 83.2s83.2-37.2 83.2-83.2v-62.4h208v62.4c0 45.9 37.2 83.2 83.2 83.2 45.9 0 83.2-37.2 83.2-83.2v-62.4h62.4c45.9 0 83.2 37.2 83.2 83.2v665.5c-0.2 46-37.4 83.2-83.4 83.2zM709.6 585.4H772c17.2-0.6 30.7-15.1 30.1-32.3-0.6-16.3-13.7-29.5-30.1-30.1h-62.4c-17.2 0.6-30.7 15.1-30.1 32.3 0.6 16.4 13.7 29.6 30.1 30.1zM480.8 772.6h62.4c17.2 0 31.2-14 31.2-31.2s-14-31.2-31.2-31.2h-62.4c-17.2 0-31.2 14-31.2 31.2s13.9 31.2 31.2 31.2z m0-187.2h62.4c17.2-0.6 30.7-15.1 30.1-32.3-0.6-16.3-13.7-29.5-30.1-30.1h-62.4c-17.2-0.6-31.7 12.8-32.3 30.1-0.6 17.2 12.8 31.7 30.1 32.3 0.7 0.1 1.4 0.1 2.2 0zM252 772.6h62.4c17.2 0 31.2-14 31.2-31.2s-14-31.2-31.2-31.2H252c-17.2 0-31.2 14-31.2 31.2 0 17.3 14 31.2 31.2 31.2z m0-187.2h62.4c17.2 0.6 31.7-12.8 32.3-30.1s-12.8-31.7-30.1-32.3H252c-17.2-0.6-31.7 12.8-32.3 30.1-0.6 17.2 12.8 31.7 30.1 32.3 0.7 0.1 1.5 0.1 2.2 0z m582.3-249.5H189.6c-17.2 0-31.2 14-31.2 31.2s14 31.2 31.2 31.2h644.7c17.2 0 31.2-14 31.2-31.2 0.1-17.2-13.9-31.2-31.2-31.2 0.1 0 0.1 0 0 0z m-135.1-104c-23 0-41.6-18.6-41.6-41.6v-83.2c-0.7-23 17.3-42.2 40.3-42.9 23-0.7 42.2 17.3 42.9 40.3v85.8c0 23-18.7 41.6-41.6 41.6z m-374.4 0c-23 0-41.6-18.6-41.6-41.6v-83.2c0.7-23 19.9-41 42.9-40.3 22 0.7 39.6 18.3 40.3 40.3v83.2c0 23-18.6 41.6-41.6 41.6z" p-id="24221" fill="#ffffff"></path></svg>