<?xml version="1.0" standalone="no"?><!DOCTYPE svg PUBLIC "-//W3C//DTD SVG 1.1//EN" "http://www.w3.org/Graphics/SVG/1.1/DTD/svg11.dtd"><svg t="1594651102105" class="icon" viewBox="0 0 1024 1024" version="1.1" xmlns="http://www.w3.org/2000/svg" p-id="16196" xmlns:xlink="http://www.w3.org/1999/xlink" width="200" height="200"><defs><style type="text/css"></style></defs><path d="M737.786781 689.431484l-45.807474-35.95017 173.952435-225.558324a229.037373 229.037373 0 0 0-357.762175-282.382786l-173.952434 225.558324-45.807475-35.370329 173.952435-225.558324A286.441676 286.441676 0 1 1 914.058582 463.87316z" fill="#ffffff" p-id="16197"></path><path d="M737.20694 688.851642l-173.952435 225.558324a289.920725 289.920725 0 0 1-402.409966 49.286523A289.920725 289.920725 0 0 1 106.919284 561.286523l179.171008-225.558324M952.907959 719.003398l-249.911665 121.186862a13.916195 13.916195 0 0 0 0 25.513024l115.96829 40.00906a13.336353 13.336353 0 0 1 6.958098 5.798415l67.841449 100.892412a14.496036 14.496036 0 0 0 25.513024-5.218573l52.765572-273.105323a13.916195 13.916195 0 0 0-19.134768-15.075877z" fill="#ffffff" p-id="16198"></path></svg>