<?xml version="1.0" standalone="no"?><!DOCTYPE svg PUBLIC "-//W3C//DTD SVG 1.1//EN" "http://www.w3.org/Graphics/SVG/1.1/DTD/svg11.dtd"><svg t="1594650317141" class="icon" viewBox="0 0 1024 1024" version="1.1" xmlns="http://www.w3.org/2000/svg" p-id="4718" xmlns:xlink="http://www.w3.org/1999/xlink" width="200" height="200"><defs><style type="text/css"></style></defs><path d="M936.200387 868.232382C936.200387 913.088063 899.807939 949.509413 854.987854 949.509413L167.602841 949.509413C122.784167 949.509413 86.390311 913.088063 86.390311 868.232382L86.390311 228.422226C86.390311 183.566545 122.784167 147.207252 167.602841 147.207252L267.959351 147.207252 267.959351 228.422226C267.959351 250.850771 286.125274 269.029712 308.53461 269.029712 330.943947 269.029712 349.11128 250.850771 349.11128 228.422226L349.11128 147.207252 673.841605 147.207252 673.841605 228.423636C673.841605 250.850771 692.007531 269.031123 714.416869 269.031123 736.829021 269.031123 754.993537 250.850771 754.993537 228.423636L754.993537 147.207252 854.986445 147.207252C899.80653 147.207252 936.198978 183.566545 936.198978 228.423636L936.198978 868.232382 936.200387 868.232382 936.200387 868.232382ZM876.782738 82.559107 754.993537 82.559107 754.993537 41.95162C754.993537 19.523074 736.829021 1.342723 714.416869 1.342723 692.007531 1.342723 673.841605 19.523074 673.841605 41.95162L673.841605 82.559107 349.11128 82.559107 349.11128 41.95162C349.11128 19.523074 330.943947 1.342723 308.53461 1.342723 286.125274 1.342723 267.959351 19.523074 267.959351 41.95162L267.959351 82.559107 146.168742 82.559107C78.877314 82.559107 24.380952 137.16222 24.380952 204.445036L24.380952 895.030418C24.380952 962.375295 78.877314 1016.914939 146.168742 1016.914939L876.782738 1016.914939C944.075576 1016.914939 998.571934 962.375295 998.571934 895.030418L998.571934 204.445036C998.573344 137.16222 944.076985 82.559107 876.782738 82.559107L876.782738 82.559107Z" p-id="4719" fill="#ffffff"></path><path d="M661.421417 391.098997 511.439097 541.984631 361.328533 391.756254C345.4485 375.973621 319.677974 376.128768 303.848676 391.960765 288.01656 407.85059 288.057429 433.590808 303.940281 449.4355L482.886606 628.161473C498.76523 644.003343 524.423012 643.96385 540.25513 628.071205L719.319835 448.862868C735.150543 432.968812 734.731981 406.853421 718.850536 391.00873 702.971914 375.227508 677.25353 375.266999 661.421417 391.098997" p-id="4720" fill="#ffffff"></path><path d="M361.530063 807.6928 511.51379 656.807166 661.622945 807.035543C677.504385 822.818172 703.273506 822.663027 719.1028 806.83244 734.936327 790.941204 734.89546 765.200989 719.012606 749.356295L540.06628 570.63032C524.186249 554.78845 498.528467 554.829356 482.697759 570.720588L303.633053 749.928926C287.802345 765.822981 288.219499 791.938375 304.100942 807.783068 319.980975 823.565697 345.699356 823.524796 361.530063 807.6928" p-id="4721" fill="#ffffff"></path></svg>